<!-- cat emoji -->
<svg xmlns="http://www.w3.org/2000/svg" width="72" height="72" viewBox="0 0 72 72"><path fill="#F4AA41" d="M58.666 48.945c-3.598 9.117-12.632 15.042-23.208 15.042c-9.117 0-19.256-5.735-22.853-14.851l-.127-.313c-1.141-2.86-.957-6.36-.957-9.633l3.667-32.37L25.416 16.9a24.164 24.164 0 0 1 9.51-1.94h1.064c3.373 0 6.588.691 9.51 1.94L56.728 5.82l3.723 33.875a24.9 24.9 0 0 1-1.77 9.257"/><path fill="#E27022" d="M35.458 63.987c10.61.342 20.354-5.89 23.952-15.008l.11-.23c1.142-2.86.959-6.897.959-10.17l-3.75-31.76"/><path fill="#EA5A47" d="M33.43 53.78c4.276 2.801 9.57-.534 10.33-3.683l1.083-.96s-4.713 3.604-7.967-1.05c.215 4.007-1.562 5.151-3.376 5.74"/><path fill="#FFF" d="M55.106 33.74S41.2 39.62 41.854 40.367c13.306 12.103 14.35-4.94 13.252-6.625m-38.212-.002s12.866 6.92 13.252 6.626c-12.845 12.737-14.549-3.86-13.252-6.625"/><path fill="none" stroke="#000" stroke-linecap="round" stroke-linejoin="round" stroke-miterlimit="10" stroke-width="2" d="M34 46.88h6.16m-6.73 6.88c4.276 2.802 9.57-.533 10.33-3.682l1.083-.96s-4.713 3.604-7.967-1.05c.215 4.007-1.562 5.151-3.376 5.74m21.606-20.086S41.2 39.6 41.854 40.347c13.306 12.103 14.35-4.94 13.252-6.625M62 54.16l-9.36-5.2m5.2 10.4l-9.36-5.2"/><path fill="none" stroke="#000" stroke-linecap="round" stroke-linejoin="round" stroke-miterlimit="10" stroke-width="2" d="M13.292 48.032a23.845 23.845 0 0 1-1.732-8.952L15.2 6.32l10.98 10.715a23.858 23.858 0 0 1 9.3-1.875h1.04c3.299 0 6.441.668 9.301 1.875L56.8 6.32l3.64 32.76c0 3.165-.614 6.186-1.732 8.952m-35.883 11.35A23.806 23.806 0 0 0 35.48 63h1.04c4.646 0 8.984-1.324 12.655-3.618"/><path fill="none" stroke="#000" stroke-linecap="round" stroke-linejoin="round" stroke-miterlimit="10" stroke-width="2" d="M16.894 33.722s12.866 6.918 13.252 6.625c-12.845 12.737-14.549-3.86-13.252-6.625M10 54.16l9.36-5.2m-5.2 10.4l9.36-5.2"/><circle cx="23.52" cy="38.56" r="2.08"/><circle cx="48.48" cy="38.56" r="2.08"/></svg>
